<?xml version="1.0" encoding="UTF-8"?>
<svg width="200" height="200" viewBox="0 0 200 200" fill="none" xmlns="http://www.w3.org/2000/svg">
    <!-- Background -->
    <circle cx="100" cy="100" r="100" fill="#F3F4F6"/>
    
    <!-- Professional Woman Avatar -->
    <path d="M100 120C130 120 150 150 150 180H50C50 150 70 120 100 120Z" fill="#4F46E5"/>
    <circle cx="100" cy="80" r="40" fill="#4F46E5"/>
    
    <!-- Hair -->
    <path d="M60 80C60 60 80 40 100 40C120 40 140 60 140 80C140 100 120 110 100 110C80 110 60 100 60 80Z" fill="#1F2937"/>
    
    <!-- Face Details -->
    <circle cx="85" cy="75" r="5" fill="white"/>
    <circle cx="115" cy="75" r="5" fill="white"/>
    <path d="M90 90C95 95 105 95 110 90" stroke="white" stroke-width="3" stroke-linecap="round"/>
</svg> 