<?xml version="1.0" encoding="UTF-8"?>
<svg width="200" height="200" viewBox="0 0 200 200" fill="none" xmlns="http://www.w3.org/2000/svg">
    <!-- Background -->
    <circle cx="100" cy="100" r="100" fill="#F3F4F6"/>
    
    <!-- Professional Man Avatar -->
    <path d="M100 120C130 120 150 150 150 180H50C50 150 70 120 100 120Z" fill="#3B82F6"/>
    <circle cx="100" cy="80" r="40" fill="#3B82F6"/>
    
    <!-- Hair -->
    <path d="M70 60C70 40 80 30 100 30C120 30 130 40 130 60C130 80 120 85 100 85C80 85 70 80 70 60Z" fill="#111827"/>
    
    <!-- Face Details -->
    <circle cx="85" cy="75" r="5" fill="white"/>
    <circle cx="115" cy="75" r="5" fill="white"/>
    <path d="M90 90C95 95 105 95 110 90" stroke="white" stroke-width="3" stroke-linecap="round"/>
    
    <!-- Glasses -->
    <path d="M75 75H95M105 75H125" stroke="#111827" stroke-width="3"/>
    <circle cx="85" cy="75" r="10" stroke="#111827" stroke-width="3"/>
    <circle cx="115" cy="75" r="10" stroke="#111827" stroke-width="3"/>
</svg> 